<?xml version="1.0" encoding="UTF-8"?>
<svg viewBox="0 0 28 28" xmlns="http://www.w3.org/2000/svg">
<path d="m2.334 15.132v-6.9766c0-3.22 2.6133-5.8217 5.8333-5.8217h11.667c3.22 0 5.8333 2.6017 5.8333 5.8217v8.1433c0 3.2083-2.6133 5.81-5.8333 5.81h-1.75c-0.3617 0-0.7117 0.175-0.9333 0.4667l-1.75 2.3216c-0.77 1.0267-2.03 1.0267-2.8 0l-1.75-2.3216c-0.1867-0.2567-0.6067-0.4667-0.93338-0.4667h-1.75c-3.22 0-5.8333-2.6017-5.8333-5.81v-1.1667z" fill="#D0C7F6"/>
<path d="m14.001 14c-0.6534 0-1.1667-0.525-1.1667-1.1666 0-0.6417 0.525-1.1667 1.1667-1.1667 0.6416 0 1.1666 0.525 1.1666 1.1667 0 0.6416-0.5133 1.1666-1.1666 1.1666z" fill="#664AE3"/>
<path d="m18.667 14c-0.6534 0-1.1667-0.525-1.1667-1.1666 0-0.6417 0.525-1.1667 1.1667-1.1667 0.6416 0 1.1666 0.525 1.1666 1.1667 0 0.6416-0.5133 1.1666-1.1666 1.1666z" fill="#664AE3"/>
<path d="m9.3327 14c-0.65333 0-1.1667-0.525-1.1667-1.1666 0-0.6417 0.525-1.1667 1.1667-1.1667 0.64167 0 1.1666 0.525 1.1666 1.1667 0 0.6416-0.51328 1.1666-1.1666 1.1666z" fill="#664AE3"/>
</svg>
