<?xml version="1.0" encoding="UTF-8"?>
<svg viewBox="0 0 16 16" xmlns="http://www.w3.org/2000/svg">
<path d="m7.8606 9.4735-2.18 2.18c-0.24-0.2133-0.47333-0.4333-0.7-0.66-0.68667-0.6933-1.3067-1.42-1.86-2.18-0.54667-0.76-0.98667-1.52-1.3067-2.2733-0.32-0.76-0.48-1.4867-0.48-2.18 0-0.45333 0.08-0.88666 0.24-1.2867 0.16-0.40667 0.41334-0.78 0.76667-1.1133 0.42667-0.42 0.89333-0.62666 1.3867-0.62666 0.18666 0 0.37333 0.04 0.54 0.12 0.17333 0.08 0.32666 0.2 0.44666 0.37333l1.5467 2.18c0.12 0.16667 0.20667 0.32 0.26667 0.46667 0.06 0.14 0.09333 0.28 0.09333 0.40666 0 0.16-0.04667 0.32-0.14 0.47334-0.08667 0.15333-0.21333 0.31333-0.37333 0.47333l-0.50667 0.52667c-0.07333 0.07333-0.10667 0.16-0.10667 0.26666 0 0.05334 0.00667 0.1 0.02 0.15334 0.02 0.05333 0.04 0.09333 0.05334 0.13333 0.12 0.22 0.32666 0.50667 0.62 0.85333 0.3 0.34667 0.62 0.7 0.96666 1.0533 0.24 0.23333 0.47334 0.46 0.70667 0.66z" fill="#664AE3"/>
<path d="m14.647 12.22c0 0.1866-0.0334 0.38-0.1 0.5666-0.02 0.0534-0.04 0.1067-0.0667 0.16-0.1133 0.24-0.26 0.4667-0.4533 0.68-0.3267 0.36-0.6867 0.62-1.0934 0.7867-0.0066 0-0.0133 0.0067-0.02 0.0067-0.3933 0.16-0.82 0.2466-1.28 0.2466-0.68 0-1.4066-0.16-2.1733-0.4866-0.76667-0.3267-1.5333-0.7667-2.2933-1.32-0.26-0.1934-0.52-0.3867-0.76667-0.5934l2.18-2.18c0.18667 0.14 0.35333 0.2467 0.49333 0.32 0.03334 0.0134 0.07334 0.0334 0.12 0.0534 0.05334 0.02 0.10667 0.0266 0.16667 0.0266 0.11333 0 0.2-0.04 0.27333-0.1133l0.50668-0.5c0.1667-0.16667 0.3267-0.29334 0.48-0.37334 0.1533-0.09333 0.3067-0.14 0.4733-0.14 0.1267 0 0.26 0.02667 0.4067 0.08667s0.3 0.14667 0.4667 0.26l2.2066 1.5667c0.1734 0.12 0.2934 0.26 0.3667 0.4267 0.0667 0.1666 0.1067 0.3333 0.1067 0.52z" fill="#664AE3"/>
</svg>
