<?xml version="1.0" encoding="UTF-8"?>
<svg viewBox="0 0 28 28" xmlns="http://www.w3.org/2000/svg">
<path d="m19.834 23.917h-11.667c-3.5 0-5.8333-1.75-5.8333-5.8333v-8.1667c0-4.0833 2.3333-5.8333 5.8333-5.8333h11.667c3.5 0 5.8333 1.75 5.8333 5.8333v8.1667c0 4.0833-2.3333 5.8333-5.8333 5.8333z" fill="#D0C7F6"/>
<path d="m14.001 15.015c-0.98 0-1.9717-0.3034-2.73-0.9217l-3.6517-2.9167c-0.37334-0.3033-0.44333-0.8516-0.14-1.225 0.30334-0.37333 0.85167-0.44333 1.225-0.13999l3.6517 2.9167c0.8866 0.7117 2.3916 0.7117 3.2783 0l3.6517-2.9167c0.3733-0.30334 0.9333-0.24501 1.225 0.13999 0.3033 0.37337 0.245 0.93337-0.14 1.225l-3.6517 2.9167c-0.7467 0.6183-1.7383 0.9217-2.7183 0.9217z" fill="#664AE3"/>
</svg>
