<?xml version="1.0" encoding="UTF-8"?>
<svg viewBox="0 0 16 16" xmlns="http://www.w3.org/2000/svg">
<path d="M16 0H0V16H16V0Z" fill="#fff" opacity=".58"/>
<path d="m4.6275 13.753c0.99333 0.58 2.1467 0.9133 3.3733 0.9133 3.7534 0 6.8734-3.3133 6.6534-7.06-0.2267-3.8667-3.74-6.8467-7.7867-6.18-2.7867 0.46-5.02 2.72-5.4533 5.5067-0.25333 1.6133 0.08001 3.14 0.80668 4.4l-0.59334 2.2067c-0.13334 0.5 0.32665 0.9533 0.81998 0.8133l2.18-0.6z" fill="#664AE3"/>
<path d="m11.333 10.113c0 0.12-0.0267 0.2467-0.0867 0.3667s-0.1333 0.2333-0.2266 0.34c-0.1667 0.18-0.3467 0.3133-0.5467 0.3933-0.2 0.0867-0.42 0.1267-0.65336 0.1267-0.34 0-0.70667-0.08-1.0867-0.2467-0.38667-0.1666-0.76665-0.3866-1.1466-0.66-0.38667-0.28-0.74668-0.59332-1.0933-0.93332-0.34667-0.34666-0.65331-0.71333-0.93331-1.0933-0.27334-0.38-0.49336-0.76-0.65336-1.14s-0.23999-0.74666-0.23999-1.0933c0-0.22667 0.03999-0.44667 0.11999-0.64667 0.08-0.20666 0.20668-0.39333 0.38668-0.56 0.21333-0.21333 0.44665-0.31333 0.69332-0.31333 0.09333 0 0.18669 0.02 0.27335 0.06 0.08667 0.04 0.16665 0.1 0.22665 0.18666l0.76668 1.1c0.06 0.08667 0.10668 0.16 0.13334 0.23334 0.03334 0.07333 0.04663 0.14 0.04663 0.20667 0 0.08-0.02665 0.15999-0.07332 0.23999s-0.10665 0.16-0.18665 0.24l-0.25333 0.26667c-0.04 0.04-0.05335 0.08-0.05335 0.13334 0 0.02666 0.00668 0.05333 0.01335 0.07999 0.01333 0.02667 0.01998 0.04667 0.02665 0.06667 0.06 0.11333 0.16669 0.25333 0.31335 0.42667 0.15334 0.17333 0.31333 0.35333 0.48666 0.52666 0.18 0.18 0.35332 0.34001 0.53332 0.49334 0.17334 0.14667 0.32002 0.24667 0.43335 0.30667 0.02 0.00666 0.03998 0.02 0.05998 0.02666 0.02667 0.01334 0.05334 0.01333 0.08667 0.01333 0.06 0 0.10002-0.01999 0.14001-0.05999l0.25334-0.25334c0.08667-0.08667 0.16666-0.14667 0.23999-0.18667 0.08-0.04666 0.15333-0.07333 0.23999-0.07333 0.06667 0 0.13333 0.01333 0.20667 0.04667 0.07333 0.03333 0.15335 0.07333 0.23336 0.13333l1.1066 0.78667c0.0867 0.06 0.1467 0.13333 0.1867 0.21333 0.0067 0.07334 0.0267 0.15335 0.0267 0.24665z" fill="#fff"/>
</svg>
