<?xml version="1.0" encoding="UTF-8"?>
<svg viewBox="0 0 28 28" xmlns="http://www.w3.org/2000/svg">
<path d="m20.557 12.542c-0.5016 0-0.8983-0.4083-0.8983-0.8983 0-0.4317-0.4317-1.33-1.155-2.1117-0.7117-0.75834-1.4933-1.2017-2.1467-1.2017-0.5016 0-0.8983-0.40833-0.8983-0.89833s0.4083-0.89834 0.8983-0.89834c1.1667 0 2.3917 0.63 3.465 1.7617 1.0034 1.0617 1.645 2.38 1.645 3.3366 0 0.5017-0.4083 0.91-0.91 0.91z" fill="#664AE3"/>
<path d="m24.769 12.542c-0.5016 0-0.8983-0.4083-0.8983-0.8983 0-4.1417-3.3717-7.5017-7.5017-7.5017-0.5016 0-0.8983-0.40833-0.8983-0.89833s0.3967-0.91 0.8867-0.91c5.1333 0 9.31 4.1767 9.31 9.31 0 0.49-0.4084 0.8983-0.8984 0.8983z" fill="#664AE3"/>
<path d="m13.756 16.578-3.815 3.815c-0.42-0.3733-0.82833-0.7583-1.225-1.155-1.2017-1.2133-2.2867-2.485-3.255-3.815-0.95667-1.33-1.7267-2.66-2.2867-3.9783-0.56-1.33-0.84-2.6017-0.84-3.815 0-0.79333 0.14-1.5517 0.42-2.2517 0.28-0.71167 0.72334-1.365 1.3417-1.9483 0.74667-0.735 1.5633-1.0967 2.4267-1.0967 0.32666 0 0.65333 0.07 0.945 0.21 0.30333 0.14 0.57166 0.35 0.78166 0.65333l2.7067 3.815c0.21 0.29167 0.3616 0.56 0.4666 0.81667 0.105 0.245 0.1634 0.49 0.1634 0.71166 0 0.28-0.0817 0.56-0.245 0.82834-0.1517 0.26833-0.3734 0.54833-0.6534 0.8283l-0.88665 0.9217c-0.12833 0.1283-0.18667 0.28-0.18667 0.4667 0 0.0933 0.01167 0.175 0.03501 0.2683 0.035 0.0933 0.07 0.1633 0.09333 0.2333 0.21 0.385 0.57168 0.8867 1.085 1.4934 0.525 0.6066 1.085 1.225 1.6917 1.8433 0.42 0.4083 0.8283 0.805 1.2367 1.155z" fill="#D0C7F6"/>
<path d="m25.631 21.385c0 0.3266-0.0583 0.665-0.175 0.9917-0.035 0.0933-0.07 0.1866-0.1167 0.2799-0.1983 0.4201-0.455 0.8167-0.7933 1.1901-0.5717 0.63-1.2017 1.085-1.9133 1.3766-0.0117 0-0.0234 0.0117-0.035 0.0117-0.6884 0.28-1.435 0.4316-2.24 0.4316-1.19 0-2.4617-0.2799-3.8034-0.8516-1.3416-0.5717-2.6833-1.3417-4.0133-2.31-0.455-0.3383-0.91-0.6767-1.3417-1.0384l3.815-3.815c0.3267 0.245 0.6184 0.4317 0.8634 0.56 0.0583 0.0234 0.1283 0.0584 0.21 0.0934 0.0933 0.035 0.1866 0.0466 0.2916 0.0466 0.1984 0 0.35-0.0699 0.4784-0.1983l0.8866-0.875c0.2917-0.2916 0.5717-0.5133 0.84-0.6533 0.2684-0.1634 0.5367-0.245 0.8284-0.245 0.2216 0 0.455 0.0466 0.7116 0.1516 0.2567 0.105 0.525 0.2567 0.8167 0.4551l3.8617 2.7416c0.3033 0.21 0.5133 0.455 0.6416 0.7467 0.1167 0.2916 0.1867 0.5833 0.1867 0.91z" fill="#D0C7F6"/>
</svg>
